<mxfile host="app.diagrams.net" modified="2021-09-06T17:26:36.622Z" agent="5.0 (Windows NT 10.0; Win64; x64) AppleWebKit/537.36 (KHTML, like Gecko) Chrome/86.0.4240.183 Safari/537.36" etag="ikQLwPYH5M0d2wD7cB20" version="15.0.6" type="github">
  <diagram id="DeCiOTjVRkeYFYUEa2B4" name="Page-1">
    <mxGraphModel dx="2500" dy="934" grid="1" gridSize="10" guides="1" tooltips="1" connect="1" arrows="1" fold="1" page="1" pageScale="1" pageWidth="827" pageHeight="1169" math="0" shadow="0">
      <root>
        <mxCell id="0" />
        <mxCell id="1" parent="0" />
        <mxCell id="RZqGf1OxCCqOM3DfR8pG-2" value="Гугл" style="text;html=1;strokeColor=none;fillColor=none;align=center;verticalAlign=middle;whiteSpace=wrap;rounded=0;" vertex="1" parent="1">
          <mxGeometry x="280" y="60" width="40" height="20" as="geometry" />
        </mxCell>
        <mxCell id="RZqGf1OxCCqOM3DfR8pG-3" value="Студент" style="text;html=1;strokeColor=none;fillColor=none;align=center;verticalAlign=middle;whiteSpace=wrap;rounded=0;" vertex="1" parent="1">
          <mxGeometry x="120" y="60" width="40" height="20" as="geometry" />
        </mxCell>
        <mxCell id="RZqGf1OxCCqOM3DfR8pG-5" value="Майстат" style="text;html=1;strokeColor=none;fillColor=none;align=center;verticalAlign=middle;whiteSpace=wrap;rounded=0;" vertex="1" parent="1">
          <mxGeometry x="440" y="60" width="40" height="20" as="geometry" />
        </mxCell>
        <mxCell id="RZqGf1OxCCqOM3DfR8pG-6" value="Вижуал Студия" style="text;html=1;strokeColor=none;fillColor=none;align=center;verticalAlign=middle;whiteSpace=wrap;rounded=0;" vertex="1" parent="1">
          <mxGeometry x="600" y="60" width="100" height="20" as="geometry" />
        </mxCell>
        <mxCell id="RZqGf1OxCCqOM3DfR8pG-9" value="" style="endArrow=none;dashed=1;html=1;dashPattern=1 3;strokeWidth=2;" edge="1" parent="1">
          <mxGeometry width="50" height="50" relative="1" as="geometry">
            <mxPoint x="230" y="1900" as="sourcePoint" />
            <mxPoint x="239" y="40" as="targetPoint" />
          </mxGeometry>
        </mxCell>
        <mxCell id="RZqGf1OxCCqOM3DfR8pG-10" value="" style="endArrow=none;dashed=1;html=1;dashPattern=1 3;strokeWidth=2;" edge="1" parent="1">
          <mxGeometry width="50" height="50" relative="1" as="geometry">
            <mxPoint x="410" y="1900" as="sourcePoint" />
            <mxPoint x="400" y="40" as="targetPoint" />
          </mxGeometry>
        </mxCell>
        <mxCell id="RZqGf1OxCCqOM3DfR8pG-11" value="" style="endArrow=none;dashed=1;html=1;dashPattern=1 3;strokeWidth=2;" edge="1" parent="1">
          <mxGeometry width="50" height="50" relative="1" as="geometry">
            <mxPoint x="570" y="1890" as="sourcePoint" />
            <mxPoint x="560" y="40" as="targetPoint" />
          </mxGeometry>
        </mxCell>
        <mxCell id="RZqGf1OxCCqOM3DfR8pG-16" style="edgeStyle=orthogonalEdgeStyle;rounded=0;orthogonalLoop=1;jettySize=auto;html=1;exitX=0.5;exitY=1;exitDx=0;exitDy=0;entryX=0.5;entryY=0;entryDx=0;entryDy=0;" edge="1" parent="1" source="RZqGf1OxCCqOM3DfR8pG-12" target="RZqGf1OxCCqOM3DfR8pG-15">
          <mxGeometry relative="1" as="geometry" />
        </mxCell>
        <mxCell id="RZqGf1OxCCqOM3DfR8pG-12" value="" style="ellipse;html=1;shape=startState;fillColor=#000000;strokeColor=#ff0000;" vertex="1" parent="1">
          <mxGeometry x="125" y="120" width="40" height="40" as="geometry" />
        </mxCell>
        <mxCell id="RZqGf1OxCCqOM3DfR8pG-14" value="" style="ellipse;html=1;shape=endState;fillColor=#000000;strokeColor=#ff0000;" vertex="1" parent="1">
          <mxGeometry x="15" y="1840" width="40" height="40" as="geometry" />
        </mxCell>
        <mxCell id="RZqGf1OxCCqOM3DfR8pG-18" value="" style="edgeStyle=orthogonalEdgeStyle;rounded=0;orthogonalLoop=1;jettySize=auto;html=1;" edge="1" parent="1" source="RZqGf1OxCCqOM3DfR8pG-15" target="RZqGf1OxCCqOM3DfR8pG-17">
          <mxGeometry relative="1" as="geometry" />
        </mxCell>
        <mxCell id="RZqGf1OxCCqOM3DfR8pG-15" value="Включить компьютер" style="rounded=1;whiteSpace=wrap;html=1;" vertex="1" parent="1">
          <mxGeometry x="95" y="180" width="100" height="50" as="geometry" />
        </mxCell>
        <mxCell id="RZqGf1OxCCqOM3DfR8pG-19" style="edgeStyle=orthogonalEdgeStyle;rounded=0;orthogonalLoop=1;jettySize=auto;html=1;exitX=0;exitY=0.5;exitDx=0;exitDy=0;entryX=0;entryY=0.5;entryDx=0;entryDy=0;" edge="1" parent="1" source="RZqGf1OxCCqOM3DfR8pG-17" target="RZqGf1OxCCqOM3DfR8pG-14">
          <mxGeometry relative="1" as="geometry">
            <mxPoint x="15" y="1740" as="targetPoint" />
            <mxPoint x="105" y="360" as="sourcePoint" />
            <Array as="points">
              <mxPoint y="290" />
              <mxPoint y="1860" />
            </Array>
          </mxGeometry>
        </mxCell>
        <mxCell id="RZqGf1OxCCqOM3DfR8pG-23" style="edgeStyle=orthogonalEdgeStyle;rounded=0;orthogonalLoop=1;jettySize=auto;html=1;exitX=0.5;exitY=1;exitDx=0;exitDy=0;" edge="1" parent="1" source="RZqGf1OxCCqOM3DfR8pG-17" target="RZqGf1OxCCqOM3DfR8pG-24">
          <mxGeometry relative="1" as="geometry">
            <mxPoint x="145" y="410" as="targetPoint" />
          </mxGeometry>
        </mxCell>
        <mxCell id="RZqGf1OxCCqOM3DfR8pG-17" value="Интернет исправен" style="rhombus;whiteSpace=wrap;html=1;rounded=1;" vertex="1" parent="1">
          <mxGeometry x="105" y="250" width="80" height="80" as="geometry" />
        </mxCell>
        <mxCell id="RZqGf1OxCCqOM3DfR8pG-21" value="Нет" style="text;html=1;strokeColor=none;fillColor=none;align=center;verticalAlign=middle;whiteSpace=wrap;rounded=0;" vertex="1" parent="1">
          <mxGeometry x="55" y="270" width="40" height="20" as="geometry" />
        </mxCell>
        <mxCell id="RZqGf1OxCCqOM3DfR8pG-26" value="" style="edgeStyle=orthogonalEdgeStyle;rounded=0;orthogonalLoop=1;jettySize=auto;html=1;" edge="1" parent="1" source="RZqGf1OxCCqOM3DfR8pG-24" target="RZqGf1OxCCqOM3DfR8pG-27">
          <mxGeometry relative="1" as="geometry">
            <mxPoint x="145" y="440" as="targetPoint" />
            <Array as="points">
              <mxPoint x="330" y="410" />
              <mxPoint x="400" y="410" />
              <mxPoint x="400" y="365" />
            </Array>
          </mxGeometry>
        </mxCell>
        <mxCell id="RZqGf1OxCCqOM3DfR8pG-24" value="Открыть браузер&amp;nbsp;" style="rounded=1;whiteSpace=wrap;html=1;" vertex="1" parent="1">
          <mxGeometry x="280" y="340" width="100" height="50" as="geometry" />
        </mxCell>
        <mxCell id="RZqGf1OxCCqOM3DfR8pG-72" value="" style="edgeStyle=orthogonalEdgeStyle;rounded=0;orthogonalLoop=1;jettySize=auto;html=1;" edge="1" parent="1" source="RZqGf1OxCCqOM3DfR8pG-27" target="RZqGf1OxCCqOM3DfR8pG-71">
          <mxGeometry relative="1" as="geometry" />
        </mxCell>
        <mxCell id="RZqGf1OxCCqOM3DfR8pG-27" value="Зайти на сайт майстат" style="rounded=1;whiteSpace=wrap;html=1;" vertex="1" parent="1">
          <mxGeometry x="440" y="340" width="100" height="50" as="geometry" />
        </mxCell>
        <mxCell id="RZqGf1OxCCqOM3DfR8pG-86" style="edgeStyle=orthogonalEdgeStyle;rounded=0;orthogonalLoop=1;jettySize=auto;html=1;exitX=0;exitY=0.5;exitDx=0;exitDy=0;entryX=0.5;entryY=0;entryDx=0;entryDy=0;" edge="1" parent="1" source="RZqGf1OxCCqOM3DfR8pG-28" target="RZqGf1OxCCqOM3DfR8pG-30">
          <mxGeometry relative="1" as="geometry" />
        </mxCell>
        <mxCell id="RZqGf1OxCCqOM3DfR8pG-28" value="Открыть вкладку с домашними заданиями" style="whiteSpace=wrap;html=1;rounded=1;" vertex="1" parent="1">
          <mxGeometry x="440" y="790" width="100" height="50" as="geometry" />
        </mxCell>
        <mxCell id="RZqGf1OxCCqOM3DfR8pG-84" style="edgeStyle=orthogonalEdgeStyle;rounded=0;orthogonalLoop=1;jettySize=auto;html=1;exitX=0.5;exitY=1;exitDx=0;exitDy=0;entryX=0.5;entryY=0;entryDx=0;entryDy=0;" edge="1" parent="1" source="RZqGf1OxCCqOM3DfR8pG-30" target="RZqGf1OxCCqOM3DfR8pG-14">
          <mxGeometry relative="1" as="geometry" />
        </mxCell>
        <mxCell id="RZqGf1OxCCqOM3DfR8pG-87" style="edgeStyle=orthogonalEdgeStyle;rounded=0;orthogonalLoop=1;jettySize=auto;html=1;exitX=1;exitY=0.5;exitDx=0;exitDy=0;entryX=0;entryY=0.5;entryDx=0;entryDy=0;" edge="1" parent="1" source="RZqGf1OxCCqOM3DfR8pG-30" target="RZqGf1OxCCqOM3DfR8pG-39">
          <mxGeometry relative="1" as="geometry">
            <Array as="points">
              <mxPoint x="120" y="815" />
              <mxPoint x="120" y="975" />
            </Array>
          </mxGeometry>
        </mxCell>
        <mxCell id="RZqGf1OxCCqOM3DfR8pG-30" value="Есть невыполненные домашние задания" style="rhombus;whiteSpace=wrap;html=1;rounded=1;" vertex="1" parent="1">
          <mxGeometry y="780" width="70" height="70" as="geometry" />
        </mxCell>
        <mxCell id="RZqGf1OxCCqOM3DfR8pG-33" value="Нет" style="text;html=1;strokeColor=none;fillColor=none;align=center;verticalAlign=middle;whiteSpace=wrap;rounded=0;" vertex="1" parent="1">
          <mxGeometry x="30" y="850" width="40" height="20" as="geometry" />
        </mxCell>
        <mxCell id="RZqGf1OxCCqOM3DfR8pG-34" value="Да" style="text;html=1;strokeColor=none;fillColor=none;align=center;verticalAlign=middle;whiteSpace=wrap;rounded=0;" vertex="1" parent="1">
          <mxGeometry x="85" y="790" width="40" height="20" as="geometry" />
        </mxCell>
        <mxCell id="RZqGf1OxCCqOM3DfR8pG-37" value="Да" style="text;html=1;strokeColor=none;fillColor=none;align=center;verticalAlign=middle;whiteSpace=wrap;rounded=0;" vertex="1" parent="1">
          <mxGeometry x="145" y="320" width="40" height="20" as="geometry" />
        </mxCell>
        <mxCell id="RZqGf1OxCCqOM3DfR8pG-44" value="" style="edgeStyle=orthogonalEdgeStyle;rounded=0;orthogonalLoop=1;jettySize=auto;html=1;" edge="1" parent="1" source="RZqGf1OxCCqOM3DfR8pG-39" target="RZqGf1OxCCqOM3DfR8pG-43">
          <mxGeometry relative="1" as="geometry">
            <Array as="points">
              <mxPoint x="490" y="1070" />
            </Array>
          </mxGeometry>
        </mxCell>
        <mxCell id="RZqGf1OxCCqOM3DfR8pG-39" value="Скачать файл с заданием" style="whiteSpace=wrap;html=1;rounded=1;" vertex="1" parent="1">
          <mxGeometry x="440" y="950" width="100" height="50" as="geometry" />
        </mxCell>
        <mxCell id="RZqGf1OxCCqOM3DfR8pG-42" style="edgeStyle=orthogonalEdgeStyle;rounded=0;orthogonalLoop=1;jettySize=auto;html=1;exitX=0.5;exitY=1;exitDx=0;exitDy=0;entryX=0.5;entryY=0;entryDx=0;entryDy=0;" edge="1" parent="1" source="RZqGf1OxCCqOM3DfR8pG-41" target="RZqGf1OxCCqOM3DfR8pG-28">
          <mxGeometry relative="1" as="geometry" />
        </mxCell>
        <mxCell id="RZqGf1OxCCqOM3DfR8pG-41" value="Зайти на свой аккаунт" style="rounded=1;whiteSpace=wrap;html=1;" vertex="1" parent="1">
          <mxGeometry x="440" y="690" width="100" height="50" as="geometry" />
        </mxCell>
        <mxCell id="RZqGf1OxCCqOM3DfR8pG-90" value="" style="edgeStyle=orthogonalEdgeStyle;rounded=0;orthogonalLoop=1;jettySize=auto;html=1;" edge="1" parent="1" source="RZqGf1OxCCqOM3DfR8pG-43" target="RZqGf1OxCCqOM3DfR8pG-89">
          <mxGeometry relative="1" as="geometry" />
        </mxCell>
        <mxCell id="RZqGf1OxCCqOM3DfR8pG-43" value="Открыть файл" style="whiteSpace=wrap;html=1;rounded=1;" vertex="1" parent="1">
          <mxGeometry x="250" y="1040" width="120" height="60" as="geometry" />
        </mxCell>
        <mxCell id="RZqGf1OxCCqOM3DfR8pG-54" style="edgeStyle=orthogonalEdgeStyle;rounded=0;orthogonalLoop=1;jettySize=auto;html=1;exitX=0.5;exitY=1;exitDx=0;exitDy=0;entryX=0.5;entryY=0;entryDx=0;entryDy=0;" edge="1" parent="1" source="RZqGf1OxCCqOM3DfR8pG-47" target="RZqGf1OxCCqOM3DfR8pG-49">
          <mxGeometry relative="1" as="geometry" />
        </mxCell>
        <mxCell id="RZqGf1OxCCqOM3DfR8pG-47" value="Открыть Вижуал Студию" style="whiteSpace=wrap;html=1;rounded=1;" vertex="1" parent="1">
          <mxGeometry x="260" y="1169" width="120" height="60" as="geometry" />
        </mxCell>
        <mxCell id="RZqGf1OxCCqOM3DfR8pG-92" style="edgeStyle=orthogonalEdgeStyle;rounded=0;orthogonalLoop=1;jettySize=auto;html=1;exitX=0.5;exitY=1;exitDx=0;exitDy=0;entryX=0.5;entryY=0;entryDx=0;entryDy=0;" edge="1" parent="1" source="RZqGf1OxCCqOM3DfR8pG-49" target="RZqGf1OxCCqOM3DfR8pG-55">
          <mxGeometry relative="1" as="geometry" />
        </mxCell>
        <mxCell id="RZqGf1OxCCqOM3DfR8pG-49" value="Написать код по заданию" style="whiteSpace=wrap;html=1;rounded=1;" vertex="1" parent="1">
          <mxGeometry x="600" y="1229" width="120" height="60" as="geometry" />
        </mxCell>
        <mxCell id="RZqGf1OxCCqOM3DfR8pG-60" value="" style="edgeStyle=orthogonalEdgeStyle;rounded=0;orthogonalLoop=1;jettySize=auto;html=1;" edge="1" parent="1" source="RZqGf1OxCCqOM3DfR8pG-55" target="RZqGf1OxCCqOM3DfR8pG-59">
          <mxGeometry relative="1" as="geometry" />
        </mxCell>
        <mxCell id="RZqGf1OxCCqOM3DfR8pG-55" value="Запустить код для проверки" style="whiteSpace=wrap;html=1;rounded=1;" vertex="1" parent="1">
          <mxGeometry x="600" y="1340" width="120" height="60" as="geometry" />
        </mxCell>
        <mxCell id="RZqGf1OxCCqOM3DfR8pG-64" value="" style="edgeStyle=orthogonalEdgeStyle;rounded=0;orthogonalLoop=1;jettySize=auto;html=1;" edge="1" parent="1" source="RZqGf1OxCCqOM3DfR8pG-59" target="RZqGf1OxCCqOM3DfR8pG-63">
          <mxGeometry relative="1" as="geometry">
            <Array as="points">
              <mxPoint x="660" y="1570" />
            </Array>
          </mxGeometry>
        </mxCell>
        <mxCell id="RZqGf1OxCCqOM3DfR8pG-93" style="edgeStyle=orthogonalEdgeStyle;rounded=0;orthogonalLoop=1;jettySize=auto;html=1;exitX=0;exitY=0.5;exitDx=0;exitDy=0;entryX=0;entryY=0.5;entryDx=0;entryDy=0;" edge="1" parent="1" source="RZqGf1OxCCqOM3DfR8pG-59" target="RZqGf1OxCCqOM3DfR8pG-49">
          <mxGeometry relative="1" as="geometry" />
        </mxCell>
        <mxCell id="RZqGf1OxCCqOM3DfR8pG-59" value="Код отработал правильно" style="rhombus;whiteSpace=wrap;html=1;rounded=1;" vertex="1" parent="1">
          <mxGeometry x="620" y="1440" width="80" height="80" as="geometry" />
        </mxCell>
        <mxCell id="RZqGf1OxCCqOM3DfR8pG-62" value="Нет" style="text;html=1;strokeColor=none;fillColor=none;align=center;verticalAlign=middle;whiteSpace=wrap;rounded=0;" vertex="1" parent="1">
          <mxGeometry x="580" y="1450" width="40" height="20" as="geometry" />
        </mxCell>
        <mxCell id="RZqGf1OxCCqOM3DfR8pG-67" value="" style="edgeStyle=orthogonalEdgeStyle;rounded=0;orthogonalLoop=1;jettySize=auto;html=1;" edge="1" parent="1" source="RZqGf1OxCCqOM3DfR8pG-63" target="RZqGf1OxCCqOM3DfR8pG-66">
          <mxGeometry relative="1" as="geometry">
            <Array as="points">
              <mxPoint x="320" y="1640" />
            </Array>
          </mxGeometry>
        </mxCell>
        <mxCell id="RZqGf1OxCCqOM3DfR8pG-63" value="Засунуть файлы с дз в rаr-архив" style="whiteSpace=wrap;html=1;rounded=1;" vertex="1" parent="1">
          <mxGeometry x="260" y="1520" width="120" height="60" as="geometry" />
        </mxCell>
        <mxCell id="RZqGf1OxCCqOM3DfR8pG-65" value="Да" style="text;html=1;strokeColor=none;fillColor=none;align=center;verticalAlign=middle;whiteSpace=wrap;rounded=0;" vertex="1" parent="1">
          <mxGeometry x="650" y="1530" width="40" height="20" as="geometry" />
        </mxCell>
        <mxCell id="RZqGf1OxCCqOM3DfR8pG-69" value="" style="edgeStyle=orthogonalEdgeStyle;rounded=0;orthogonalLoop=1;jettySize=auto;html=1;" edge="1" parent="1" source="RZqGf1OxCCqOM3DfR8pG-66" target="RZqGf1OxCCqOM3DfR8pG-68">
          <mxGeometry relative="1" as="geometry" />
        </mxCell>
        <mxCell id="RZqGf1OxCCqOM3DfR8pG-66" value="Загрузить архив в домашнее задание" style="whiteSpace=wrap;html=1;rounded=1;" vertex="1" parent="1">
          <mxGeometry x="430" y="1610" width="120" height="60" as="geometry" />
        </mxCell>
        <mxCell id="RZqGf1OxCCqOM3DfR8pG-70" style="edgeStyle=orthogonalEdgeStyle;rounded=0;orthogonalLoop=1;jettySize=auto;html=1;exitX=0.5;exitY=1;exitDx=0;exitDy=0;entryX=1;entryY=0.5;entryDx=0;entryDy=0;" edge="1" parent="1" source="RZqGf1OxCCqOM3DfR8pG-68" target="RZqGf1OxCCqOM3DfR8pG-14">
          <mxGeometry relative="1" as="geometry">
            <mxPoint x="55" y="1810" as="targetPoint" />
          </mxGeometry>
        </mxCell>
        <mxCell id="RZqGf1OxCCqOM3DfR8pG-68" value="Отправить задание" style="whiteSpace=wrap;html=1;rounded=1;" vertex="1" parent="1">
          <mxGeometry x="430" y="1710" width="120" height="60" as="geometry" />
        </mxCell>
        <mxCell id="RZqGf1OxCCqOM3DfR8pG-74" value="" style="edgeStyle=orthogonalEdgeStyle;rounded=0;orthogonalLoop=1;jettySize=auto;html=1;" edge="1" parent="1" source="RZqGf1OxCCqOM3DfR8pG-71" target="RZqGf1OxCCqOM3DfR8pG-73">
          <mxGeometry relative="1" as="geometry" />
        </mxCell>
        <mxCell id="RZqGf1OxCCqOM3DfR8pG-71" value="Ввести логин и пароль" style="whiteSpace=wrap;html=1;rounded=1;" vertex="1" parent="1">
          <mxGeometry x="440" y="430" width="100" height="50" as="geometry" />
        </mxCell>
        <mxCell id="RZqGf1OxCCqOM3DfR8pG-76" value="" style="edgeStyle=orthogonalEdgeStyle;rounded=0;orthogonalLoop=1;jettySize=auto;html=1;entryX=0.5;entryY=0;entryDx=0;entryDy=0;" edge="1" parent="1" source="RZqGf1OxCCqOM3DfR8pG-73" target="RZqGf1OxCCqOM3DfR8pG-41">
          <mxGeometry relative="1" as="geometry">
            <mxPoint x="470" y="780" as="targetPoint" />
          </mxGeometry>
        </mxCell>
        <mxCell id="RZqGf1OxCCqOM3DfR8pG-78" style="edgeStyle=orthogonalEdgeStyle;rounded=0;orthogonalLoop=1;jettySize=auto;html=1;exitX=0;exitY=0.5;exitDx=0;exitDy=0;entryX=0;entryY=0.5;entryDx=0;entryDy=0;" edge="1" parent="1" source="RZqGf1OxCCqOM3DfR8pG-73" target="RZqGf1OxCCqOM3DfR8pG-71">
          <mxGeometry relative="1" as="geometry" />
        </mxCell>
        <mxCell id="RZqGf1OxCCqOM3DfR8pG-73" value="Данные правильные" style="rhombus;whiteSpace=wrap;html=1;rounded=1;" vertex="1" parent="1">
          <mxGeometry x="450" y="545" width="80" height="80" as="geometry" />
        </mxCell>
        <mxCell id="RZqGf1OxCCqOM3DfR8pG-77" value="Да" style="text;html=1;strokeColor=none;fillColor=none;align=center;verticalAlign=middle;whiteSpace=wrap;rounded=0;" vertex="1" parent="1">
          <mxGeometry x="490" y="625" width="40" height="20" as="geometry" />
        </mxCell>
        <mxCell id="RZqGf1OxCCqOM3DfR8pG-79" value="Нет" style="text;html=1;strokeColor=none;fillColor=none;align=center;verticalAlign=middle;whiteSpace=wrap;rounded=0;" vertex="1" parent="1">
          <mxGeometry x="414" y="565" width="40" height="20" as="geometry" />
        </mxCell>
        <mxCell id="RZqGf1OxCCqOM3DfR8pG-91" style="edgeStyle=orthogonalEdgeStyle;rounded=0;orthogonalLoop=1;jettySize=auto;html=1;exitX=0.5;exitY=1;exitDx=0;exitDy=0;entryX=0.5;entryY=0;entryDx=0;entryDy=0;" edge="1" parent="1" source="RZqGf1OxCCqOM3DfR8pG-89" target="RZqGf1OxCCqOM3DfR8pG-47">
          <mxGeometry relative="1" as="geometry" />
        </mxCell>
        <mxCell id="RZqGf1OxCCqOM3DfR8pG-89" value="Прочитать задание" style="whiteSpace=wrap;html=1;rounded=1;" vertex="1" parent="1">
          <mxGeometry x="95" y="1040" width="120" height="60" as="geometry" />
        </mxCell>
        <mxCell id="RZqGf1OxCCqOM3DfR8pG-94" value="Начало" style="text;html=1;strokeColor=none;fillColor=none;align=center;verticalAlign=middle;whiteSpace=wrap;rounded=0;" vertex="1" parent="1">
          <mxGeometry x="125" y="100" width="40" height="20" as="geometry" />
        </mxCell>
        <mxCell id="RZqGf1OxCCqOM3DfR8pG-95" value="Конец" style="text;html=1;strokeColor=none;fillColor=none;align=center;verticalAlign=middle;whiteSpace=wrap;rounded=0;" vertex="1" parent="1">
          <mxGeometry x="15" y="1880" width="40" height="20" as="geometry" />
        </mxCell>
      </root>
    </mxGraphModel>
  </diagram>
</mxfile>
